<svg width="20" height="20" viewBox="0 0 20 20" fill="none" xmlns="http://www.w3.org/2000/svg">
<path d="M11.0932 5.57101H12.7016C12.8495 5.57101 12.9696 5.46176 12.9696 5.32714V3.86387C12.9696 3.72925 12.8495 3.62 12.7016 3.62H11.0932C9.46766 3.62 8.1445 4.82329 8.1445 6.30265V8.00979H6.26806C6.12009 8.00979 6 8.11904 6 8.25366V9.71693C6 9.85155 6.12009 9.9608 6.26806 9.9608H8.1445V15.0822C8.1445 15.2168 8.2646 15.3261 8.41257 15.3261H10.0209C10.1689 15.3261 10.289 15.2168 10.289 15.0822V9.9608H12.1655C12.2807 9.9608 12.3831 9.89349 12.4201 9.79399L12.9562 8.33073C12.9836 8.25659 12.9696 8.17465 12.9192 8.11075C12.8683 8.04734 12.7879 8.00979 12.7016 8.00979H10.289V6.30265C10.289 5.89927 10.6498 5.57101 11.0932 5.57101Z" fill="black"/>
</svg>
