<svg width="20" height="20" viewBox="0 0 20 20" fill="none" xmlns="http://www.w3.org/2000/svg">
<path d="M5.48367 6.4849C6.30301 6.4849 6.96722 5.84363 6.96722 5.05257C6.96722 4.26152 6.30301 3.62024 5.48367 3.62024C4.66433 3.62024 4.00012 4.26152 4.00012 5.05257C4.00012 5.84363 4.66433 6.4849 5.48367 6.4849Z" fill="black"/>
<path d="M6.71984 7.44165H4.24726C4.11077 7.44165 4 7.5486 4 7.68037V14.842C4 14.9738 4.11077 15.0808 4.24726 15.0808H6.71984C6.85633 15.0808 6.9671 14.9738 6.9671 14.842V7.68037C6.9671 7.5486 6.85633 7.44165 6.71984 7.44165Z" fill="black"/>
<path d="M14.088 7.04439C13.0313 6.6949 11.7094 7.00189 10.9167 7.55239C10.8895 7.44974 10.7926 7.37335 10.6774 7.37335H8.20478C8.06829 7.37335 7.95752 7.48029 7.95752 7.61207V14.7737C7.95752 14.9055 8.06829 15.0124 8.20478 15.0124H10.6774C10.8138 15.0124 10.9246 14.9055 10.9246 14.7737V9.62688C11.3242 9.29458 11.839 9.18859 12.2603 9.36142C12.6688 9.52805 12.9027 9.93483 12.9027 10.4767V14.7737C12.9027 14.9055 13.0135 15.0124 13.1499 15.0124H15.6225C15.759 15.0124 15.8698 14.9055 15.8698 14.7737V9.99595C15.8416 8.03413 14.8857 7.30794 14.088 7.04439Z" fill="black"/>
</svg>
