<svg width="20" height="20" viewBox="0 0 20 20" fill="none" xmlns="http://www.w3.org/2000/svg">
<path d="M15.2202 6.77216C15.139 6.68355 15.0081 6.66126 14.9007 6.71592C14.8339 6.74988 14.7083 6.79445 14.5592 6.83849C14.7473 6.59016 14.8985 6.31211 14.9653 6.06218C14.9942 5.95446 14.952 5.8409 14.8601 5.7767C14.7682 5.71302 14.6458 5.71302 14.5539 5.7767C14.4091 5.87699 13.7102 6.17839 13.2683 6.27602C12.2696 5.40738 11.1074 5.31717 9.89924 6.0176C8.91712 6.58697 8.70338 7.74482 8.74506 8.45056C6.49709 8.23565 5.09979 7.05658 4.31324 6.08075C4.2582 6.0123 4.1695 5.97621 4.08614 5.98152C3.99851 5.98789 3.91943 6.03618 3.87454 6.111C3.50264 6.73449 3.39951 7.42378 3.57745 8.10459C3.6747 8.47603 3.84462 8.80343 4.04179 9.06875C3.94721 9.02258 3.85584 8.96474 3.76981 8.89576C3.69073 8.83102 3.58012 8.81882 3.48661 8.8618C3.39364 8.90584 3.33432 8.99923 3.33432 9.10165C3.33432 10.2706 4.07065 11.0507 4.75834 11.4582C4.6472 11.4449 4.53125 11.4205 4.41423 11.385C4.31377 11.3547 4.20476 11.385 4.1353 11.4635C4.06584 11.5415 4.04927 11.6529 4.09255 11.7479C4.47888 12.5964 5.21093 13.1801 6.11664 13.3918C5.32581 13.8529 4.26728 14.079 3.29799 13.9681C3.17242 13.9506 3.05273 14.0296 3.01318 14.1496C2.97364 14.2695 3.02547 14.4011 3.13608 14.4626C4.60659 15.2825 5.93603 15.5754 7.08486 15.5754C8.75682 15.5754 10.0472 14.9556 10.8327 14.4372C12.9503 13.0416 14.2701 10.5359 14.0863 8.29402C14.4256 8.04515 14.9333 7.58563 15.248 7.09161C15.3132 6.99185 15.3014 6.86025 15.2202 6.77216Z" fill="black"/>
</svg>
